# xmcd
#
# Track frame offsets: 
#        150
#        12525
#        26475
#        41250
#        59775
#        71550
#        81037
#        94950
#        109762
#        134212
#        147265
#        163010
#        175012
#        188440
#        200175
#        220312
#        234300
#        241837
#        255525
#        269625
#        280125
#        293327
#        307875
#
# Disc length: 4258 seconds
#
# Revision: 4
# Processed by: cddbd v1.5.2PL0 Copyright (c) Steve Scherf et al.
# Submitted via: ExactAudioCopy v1.3
#
DISCID=5210a017
DTITLE=Various Artist - Blue Ribbon Bluegrass
DYEAR=1900
DGENRE=Bluegrass
TTITLE0=Cox Family - Pardon Me
TTITLE1=Nashville Bluegrass Band - Train Carrying Jimmie Rodgers Home
TTITLE2=Alison Krauss - Every Time You Say Goodbye
TTITLE3=Here Today with Vince Gill, David Grisman, Herb Pedersen - Lon
TTITLE3=esome River
TTITLE4=Luke and Jenny Anne Bulla - Tallahassee
TTITLE5=Ricky Skaggs - Lost and I'll Never Find The Way
TTITLE6=Lynn Morris Band - You'll Get No More of Me
TTITLE7=Johnson Mountain Boys - Duncan and Brady
TTITLE8=Laurie Lewis - Who Will Watch the Home Place?
TTITLE9=Warrior River Boys - Bright Sherman Valley
TTITLE10=Tony Rice - Galveston Flood
TTITLE11=Jim and Jessie - Dear Old Mother
TTITLE12=Del McCoury Band - Queen Anne's Lace
TTITLE13=J. D. Crowe - Why Don't You Tell Me So?
TTITLE14=Cox Family - When God Dips His Pen of Love in My Heart
TTITLE15=James King - Old River
TTITLE16=Vassar Clements - Turkey in the Straw
TTITLE17=Hazel Dickens - Here Today and Gone Tomorrow
TTITLE18=Bluegrass Album Band - Chalk Up Another One
TTITLE19=Tony Trischka - Greenwood
TTITLE20=Dry Branch Fire Squad - Girl at the Roadside Inn
TTITLE21=Rice Brothers - Walk On Boy
TTITLE22=Ricky Skaggs - River of Jordan
EXTD=
EXTT0=Cox Family\n
EXTT1=Nashville Blugrass Band\n
EXTT2=Alison Kraus and Union Station\n
EXTT3=Here Today\n
EXTT4=Luke and Jenny Anne Bulla\n
EXTT5=Ricky Skaggs\n
EXTT6=The Lynn Morris Band\n
EXTT7=Johnson Mountain Boys\n
EXTT8=Laurie Lewis\n
EXTT9=Warrior River Boys\n
EXTT10=Tony Rice\n
EXTT11=Jim and Jesse\n
EXTT12=Del McCoury Band\n
EXTT13=JD Crowe and The New South\n
EXTT14=Cox Family\n
EXTT15=James King\n
EXTT16=Vassar Clements\n
EXTT17=Hazel Dickens\n
EXTT18=Bluegrass Album Band\n
EXTT19=Tony Trischka\n
EXTT20=Dry Branch Fire Squad\n
EXTT21=Rice Brothers\n
EXTT22=Ricky Skaggs\n
PLAYORDER=
